<svg width="1418" height="728" viewBox="0 0 1418 728" fill="none" xmlns="http://www.w3.org/2000/svg">
<g filter="url(#filter0_i_13_1717)">
<mask id="mask0_13_1717" style="mask-type:alpha" maskUnits="userSpaceOnUse" x="-19" y="-258" width="1436" height="1000">
<ellipse cx="717.614" cy="499.216" rx="717.614" ry="499.216" transform="matrix(0.999986 -0.00527592 0.00280618 0.999996 -20 -253.428)" fill="url(#paint0_radial_13_1717)"/>
</mask>
<g mask="url(#mask0_13_1717)">
<path d="M1071.47 732.179C1071.47 928.19 1029.67 1105.63 962.103 1234.06C894.526 1362.5 801.224 1441.83 698.247 1441.83C595.27 1441.83 501.968 1362.5 434.391 1234.06C366.823 1105.63 325.021 928.19 325.021 732.179C325.021 536.168 366.823 358.728 434.391 230.303C501.968 101.863 595.27 22.5241 698.247 22.5241C801.224 22.5241 894.526 101.863 962.103 230.303C1029.67 358.728 1071.47 536.168 1071.47 732.179Z" stroke="#BD6CFA" stroke-width="0.618436"/>
<path d="M699.185 1104.71C503.174 1104.71 325.734 1062.91 197.309 995.343C68.8691 927.766 -10.4695 834.464 -10.4695 731.487C-10.4695 628.51 68.8691 535.208 197.309 467.632C325.734 400.063 503.174 358.261 699.185 358.261C895.197 358.261 1072.64 400.063 1201.06 467.632C1329.5 535.208 1408.84 628.51 1408.84 731.487C1408.84 834.464 1329.5 927.766 1201.06 995.343C1072.64 1062.91 895.197 1104.71 699.185 1104.71Z" stroke="#BD6CFA" stroke-width="0.618436"/>
<path d="M962.43 468.932C1101.03 607.533 1196.94 762.56 1239.97 901.149C1283.01 1039.75 1273.14 1161.83 1200.32 1234.64C1127.51 1307.46 1005.43 1317.33 866.826 1274.3C728.237 1231.26 573.21 1135.35 434.609 996.753C296.008 858.152 200.098 703.125 157.065 564.536C114.028 425.932 123.902 303.856 196.718 231.041C269.534 158.225 391.609 148.351 530.214 191.388C668.803 234.42 823.829 330.331 962.43 468.932Z" stroke="#BD6CFA" stroke-width="0.618436"/>
<path d="M962.602 995.601C824.001 1134.2 668.974 1230.11 530.385 1273.14C391.781 1316.18 269.705 1306.31 196.89 1233.49C124.074 1160.68 114.2 1038.6 157.237 899.996C200.269 761.407 296.18 606.381 434.781 467.78C573.382 329.179 728.409 233.268 866.998 190.236C1005.6 147.199 1127.68 157.073 1200.49 229.888C1273.31 302.704 1283.18 424.78 1240.15 563.384C1197.11 701.973 1101.2 857 962.602 995.601Z" stroke="#BD6CFA" stroke-width="0.618436"/>
<path d="M841.689 388.393C1022.78 463.404 1170.72 569.926 1263.51 681.498C1356.31 793.082 1393.91 909.644 1354.5 1004.78C1315.09 1099.92 1206.09 1155.76 1061.56 1169.04C917.055 1182.32 737.126 1153.04 556.035 1078.02C374.944 1003.01 227.008 896.492 134.216 784.92C41.413 673.336 3.81894 556.774 43.2265 461.636C82.634 366.498 191.639 310.659 336.162 297.379C480.669 284.1 660.599 313.383 841.689 388.393Z" stroke="#BD6CFA" stroke-width="0.618436"/>
<path d="M1043.39 874.91C968.38 1056 861.858 1203.94 750.286 1296.73C638.702 1389.53 522.14 1427.13 427.002 1387.72C331.864 1348.31 276.025 1239.31 262.744 1094.78C249.465 950.276 278.749 770.346 353.759 589.255C428.77 408.165 535.292 260.229 646.864 167.436C758.448 74.6337 875.01 37.0397 970.148 76.4472C1065.29 115.855 1121.12 224.859 1134.41 369.383C1147.68 513.89 1118.4 693.819 1043.39 874.91Z" stroke="#BD6CFA" stroke-width="0.618436"/>
<path d="M556.384 388.132C737.474 313.121 917.404 283.838 1061.91 297.117C1206.43 310.397 1315.44 366.236 1354.85 461.374C1394.25 556.512 1356.66 673.074 1263.86 784.658C1171.07 896.23 1023.13 1002.75 842.038 1077.76C660.947 1152.77 481.018 1182.06 336.511 1168.78C191.987 1155.5 82.9829 1099.66 43.5753 1004.52C4.16779 909.382 41.7619 792.821 134.564 681.236C227.357 569.665 375.293 463.142 556.384 388.132Z" stroke="#BD6CFA" stroke-width="0.618436"/>
<path d="M1043.03 589.521C1118.04 770.612 1147.32 950.542 1134.04 1095.05C1120.76 1239.57 1064.93 1348.58 969.787 1387.98C874.649 1427.39 758.087 1389.8 646.503 1297C534.931 1204.2 428.408 1056.27 353.398 875.176C278.388 694.085 249.104 514.156 262.383 369.648C275.664 225.125 331.502 116.121 426.641 76.7131C521.779 37.3055 638.341 74.8996 749.925 167.702C861.496 260.494 968.019 408.43 1043.03 589.521Z" stroke="#BD6CFA" stroke-width="0.618436"/>
<path d="M1071.12 715.936C1079.67 911.761 1045.65 1090.85 983.746 1222.11C921.837 1353.37 832.084 1436.7 729.205 1441.2C626.326 1445.69 529.652 1370.49 456.537 1245.12C383.431 1119.77 333.93 944.32 325.38 748.496C316.83 552.671 350.852 373.577 412.754 242.326C474.664 111.061 564.417 27.7281 667.296 23.2363C770.175 18.7445 866.849 93.9378 939.963 219.308C1013.07 344.664 1062.57 520.111 1071.12 715.936Z" stroke="#BD6CFA" stroke-width="0.618436"/>
<path d="M715.432 1104.35C519.608 1112.9 340.514 1078.88 209.263 1016.98C77.9977 955.068 -5.33517 865.316 -9.82695 762.437C-14.3187 659.558 60.8746 562.884 186.245 489.769C311.6 416.663 487.048 367.161 682.873 358.611C878.697 350.061 1057.79 384.083 1189.04 445.986C1320.31 507.896 1403.64 597.648 1408.13 700.527C1412.62 803.406 1337.43 900.08 1212.06 973.195C1086.7 1046.3 911.257 1095.8 715.432 1104.35Z" stroke="#BD6CFA" stroke-width="0.618436"/>
<path d="M950.694 457.692C1095.21 590.115 1197.79 740.811 1246.83 877.391C1295.87 1013.99 1291.33 1136.38 1221.76 1212.3C1152.19 1288.22 1030.66 1303.41 890.31 1266.46C749.976 1229.51 590.913 1140.46 446.398 1008.03C301.884 875.611 199.302 724.915 150.266 588.335C101.224 451.74 105.763 329.35 175.334 253.427C244.904 177.505 366.433 162.315 506.782 199.265C647.116 236.212 806.179 325.269 950.694 457.692Z" stroke="#BD6CFA" stroke-width="0.618436"/>
<path d="M973.842 983.854C841.419 1128.37 690.723 1230.95 554.143 1279.99C417.548 1329.03 295.158 1324.49 219.235 1254.92C143.313 1185.35 128.124 1063.82 165.074 923.47C202.02 783.136 291.077 624.073 423.5 479.559C555.924 335.044 706.619 232.462 843.199 183.426C979.794 134.384 1102.18 138.924 1178.11 208.494C1254.03 278.064 1269.22 399.593 1232.27 539.942C1195.32 680.276 1106.27 839.339 973.842 983.854Z" stroke="#BD6CFA" stroke-width="0.618436"/>
<path d="M826.552 382.5C1010.74 449.54 1163.18 549.509 1260.76 656.927C1358.34 764.357 1400.98 879.168 1365.76 975.934C1330.54 1072.7 1224.07 1133.24 1080.27 1152.81C936.477 1172.38 755.441 1150.98 571.251 1083.94C387.06 1016.9 234.619 916.927 137.048 809.509C39.4666 702.079 -3.176 587.269 32.0442 490.502C67.2643 393.735 173.73 333.195 317.536 313.623C461.326 294.053 642.362 315.461 826.552 382.5Z" stroke="#BD6CFA" stroke-width="0.618436"/>
<path d="M1049.29 859.754C982.248 1043.94 882.279 1196.39 774.861 1293.96C667.431 1391.54 552.62 1434.18 455.854 1398.96C359.087 1363.74 298.547 1257.28 278.975 1113.47C259.405 969.679 280.813 788.643 347.852 604.453C414.892 420.262 514.861 267.82 622.279 170.25C729.709 72.6684 844.52 30.0257 941.286 65.2459C1038.05 100.466 1098.59 206.931 1118.17 350.738C1137.73 494.528 1116.33 675.564 1049.29 859.754Z" stroke="#BD6CFA" stroke-width="0.618436"/>
<path d="M541.51 394.681C719.157 311.843 897.638 274.739 1042.59 281.702C1187.55 288.666 1298.89 339.697 1342.41 433.026C1385.93 526.355 1353.45 644.445 1265.61 759.971C1177.77 875.484 1034.62 988.359 856.974 1071.2C679.328 1154.03 500.847 1191.14 355.898 1184.18C210.933 1177.21 99.5966 1126.18 56.0767 1032.85C12.5568 939.523 45.0307 821.433 132.878 705.907C220.715 590.394 363.864 477.519 541.51 394.681Z" stroke="#BD6CFA" stroke-width="0.618436"/>
<path d="M1036.48 574.653C1119.32 752.299 1156.42 930.78 1149.46 1075.73C1142.49 1220.69 1091.46 1332.03 998.134 1375.55C904.805 1419.07 786.715 1386.6 671.189 1298.75C555.676 1210.91 442.802 1067.76 359.964 890.117C277.126 712.47 240.022 533.989 246.985 389.041C253.949 244.076 304.979 132.739 398.308 89.2193C491.637 45.6994 609.727 78.1733 725.253 166.02C840.766 253.858 953.641 397.006 1036.48 574.653Z" stroke="#BD6CFA" stroke-width="0.618436"/>
<path d="M1070.05 699.721C1087.14 894.986 1060.96 1075.39 1004.84 1209.22C948.716 1343.06 862.684 1430.23 760.099 1439.2C657.513 1448.18 557.651 1377.27 479.138 1255.21C400.633 1133.17 343.526 960.044 326.442 764.779C309.359 569.513 335.536 389.105 391.655 255.28C447.78 121.439 533.812 34.2703 636.398 25.2953C738.983 16.3203 838.845 87.2251 917.358 209.287C995.863 331.334 1052.97 504.456 1070.05 699.721Z" stroke="#BD6CFA" stroke-width="0.618436"/>
<path d="M731.647 1103.28C536.382 1120.37 355.974 1094.19 222.148 1038.07C88.3076 981.945 1.13907 895.912 -7.83596 793.327C-16.811 690.742 54.0939 590.88 176.155 512.366C298.203 433.862 471.324 376.754 666.59 359.671C861.855 342.587 1042.26 368.765 1176.09 424.884C1309.93 481.009 1397.1 567.041 1406.07 669.626C1415.05 772.211 1344.14 872.073 1222.08 950.587C1100.03 1029.09 926.913 1086.2 731.647 1103.28Z" stroke="#BD6CFA" stroke-width="0.618436"/>
<path d="M938.481 446.976C1088.63 572.97 1197.69 719.047 1252.64 853.358C1307.59 987.684 1308.4 1110.16 1242.2 1189.04C1176.01 1267.93 1055.26 1288.4 913.433 1257.61C771.621 1226.82 608.825 1144.78 458.671 1018.79C308.518 892.798 199.461 746.72 144.513 612.409C89.5601 478.083 88.7568 355.611 154.949 276.726C221.141 197.841 341.892 177.365 483.72 208.158C625.532 238.948 788.328 320.982 938.481 446.976Z" stroke="#BD6CFA" stroke-width="0.618436"/>
<path d="M984.552 971.628C858.559 1121.78 712.481 1230.84 578.17 1285.79C443.844 1340.74 321.372 1341.54 242.487 1275.35C163.603 1209.16 143.127 1088.41 173.92 946.579C204.709 804.767 286.744 641.971 412.737 491.818C538.731 341.664 684.809 232.607 819.12 177.66C953.446 122.707 1075.92 121.903 1154.8 188.096C1233.69 254.288 1254.16 375.038 1223.37 516.866C1192.58 658.678 1110.55 821.474 984.552 971.628Z" stroke="#BD6CFA" stroke-width="0.618436"/>
<path d="M811.175 377.274C998.114 436.216 1154.77 529.44 1256.93 632.5C1359.11 735.571 1406.72 848.412 1375.75 946.623C1344.79 1044.83 1241.06 1109.96 1098.25 1135.79C955.449 1161.61 773.652 1148.12 586.712 1089.18C399.773 1030.24 243.116 937.012 140.953 833.952C38.778 730.881 -8.83203 618.039 22.1337 519.829C53.0995 421.618 156.823 356.491 299.638 330.665C442.438 304.842 624.235 318.332 811.175 377.274Z" stroke="#BD6CFA" stroke-width="0.618436"/>
<path d="M1054.52 844.354C995.576 1031.29 902.352 1187.95 799.292 1290.11C696.221 1392.29 583.379 1439.9 485.169 1408.93C386.958 1377.97 321.831 1274.24 296.005 1131.43C270.182 988.628 283.672 806.831 342.614 619.892C401.556 432.952 494.78 276.295 597.84 174.132C700.911 71.9572 813.753 24.3472 911.963 55.3129C1010.17 86.2787 1075.3 190.002 1101.13 332.818C1126.95 475.618 1113.46 657.415 1054.52 844.354Z" stroke="#BD6CFA" stroke-width="0.618436"/>
<path d="M526.937 401.873C700.801 311.365 877.494 266.511 1022.61 267.145C1167.74 267.779 1281.2 313.905 1328.74 405.246C1376.29 496.588 1349 615.983 1266.28 735.23C1183.56 854.465 1045.47 973.476 871.61 1063.98C697.746 1154.49 521.053 1199.35 375.938 1198.71C230.808 1198.08 117.351 1151.95 69.8018 1060.61C22.2524 969.269 49.5444 849.874 132.269 730.626C214.984 611.392 353.073 492.381 526.937 401.873Z" stroke="#BD6CFA" stroke-width="0.618436"/>
<path d="M1029.29 560.082C1119.79 733.946 1164.65 910.639 1164.01 1055.75C1163.38 1200.88 1117.25 1314.34 1025.91 1361.89C934.57 1409.44 815.176 1382.15 695.928 1299.42C576.693 1216.71 457.682 1078.62 367.174 904.755C276.666 730.891 231.812 554.199 232.446 409.084C233.08 263.953 279.206 150.497 370.548 102.947C461.889 55.3979 581.284 82.6899 700.532 165.414C819.766 248.129 938.777 386.218 1029.29 560.082Z" stroke="#BD6CFA" stroke-width="0.618436"/>
<path d="M1068.28 683.568C1093.87 877.902 1075.58 1059.28 1025.35 1195.43C975.12 1331.59 892.972 1422.43 790.876 1435.87C688.78 1449.31 585.92 1382.83 502.157 1264.31C418.404 1145.8 353.799 975.334 328.215 780.999C302.63 586.665 320.914 405.287 371.141 269.141C421.375 132.979 503.523 42.1411 605.619 28.6999C707.715 15.2587 810.575 81.7402 894.338 200.261C978.092 318.768 1042.7 489.233 1068.28 683.568Z" stroke="#BD6CFA" stroke-width="0.618436"/>
<path d="M747.799 1101.51C553.465 1127.09 372.087 1108.81 235.941 1058.58C99.7794 1008.35 8.94114 926.199 -4.50004 824.103C-17.9412 722.007 48.5402 619.147 167.061 535.384C285.568 451.63 456.034 387.026 650.368 361.441C844.702 335.857 1026.08 354.14 1162.23 404.368C1298.39 454.601 1389.23 536.75 1402.67 638.846C1416.11 740.942 1349.63 843.801 1231.11 927.564C1112.6 1011.32 942.134 1075.92 747.799 1101.51Z" stroke="#BD6CFA" stroke-width="0.618436"/>
<path d="M925.81 436.804C1081.32 556.128 1196.64 697.31 1257.39 829.097C1318.15 960.898 1324.3 1083.22 1261.61 1164.91C1198.92 1246.61 1079.18 1272.34 936.145 1247.76C793.124 1223.18 626.905 1148.33 471.399 1029C315.892 909.68 200.567 768.498 139.814 636.712C79.0534 504.911 72.9087 382.591 135.597 300.894C198.285 219.197 318.028 193.473 461.064 218.05C604.084 242.625 770.303 317.48 925.81 436.804Z" stroke="#BD6CFA" stroke-width="0.618436"/>
<path d="M994.726 958.944C875.402 1114.45 734.22 1229.78 602.434 1290.53C470.633 1351.29 348.313 1357.43 266.616 1294.75C184.919 1232.06 159.195 1112.31 183.772 969.279C208.347 826.259 283.202 660.039 402.526 504.533C521.85 349.027 663.032 233.702 794.818 172.948C926.62 112.188 1048.94 106.043 1130.64 168.731C1212.33 231.42 1238.06 351.162 1213.48 494.198C1188.91 637.218 1114.05 803.438 994.726 958.944Z" stroke="#BD6CFA" stroke-width="0.618436"/>
<path d="M795.585 372.717C984.917 423.448 1145.49 509.75 1252.05 608.256C1358.63 706.772 1411.11 817.429 1384.46 916.897C1357.81 1016.37 1257.02 1085.95 1115.47 1117.99C973.934 1150.01 791.721 1144.47 602.389 1093.73C413.056 1043 252.482 956.7 145.921 858.195C39.3472 759.679 -13.1396 649.021 13.5128 549.553C40.1652 450.085 140.949 380.496 282.502 348.465C424.04 316.438 606.252 321.985 795.585 372.717Z" stroke="#BD6CFA" stroke-width="0.618436"/>
<path d="M1059.07 828.742C1008.34 1018.07 922.035 1178.65 823.53 1285.21C725.013 1391.78 614.356 1444.27 514.888 1417.62C415.42 1390.97 345.831 1290.18 313.8 1148.63C281.772 1007.09 287.32 824.879 338.051 635.546C388.783 446.214 475.085 285.64 573.59 179.078C672.107 72.505 782.764 20.0182 882.232 46.6706C981.7 73.3229 1051.29 174.107 1083.32 315.66C1115.35 457.198 1109.8 639.41 1059.07 828.742Z" stroke="#BD6CFA" stroke-width="0.618436"/>
<path d="M512.694 409.697C682.445 311.691 857.013 259.172 1002.02 253.476C1147.04 247.779 1262.4 288.912 1313.89 378.092C1365.37 467.273 1343.32 587.744 1265.87 710.487C1188.44 833.216 1055.67 958.137 885.92 1056.14C716.169 1154.15 541.601 1206.67 396.597 1212.36C251.577 1218.06 136.216 1176.93 84.7278 1087.75C33.2393 998.566 55.2974 878.095 132.741 755.352C210.177 632.623 342.943 507.702 512.694 409.697Z" stroke="#BD6CFA" stroke-width="0.618436"/>
<path d="M1021.46 545.84C1119.47 715.591 1171.99 890.159 1177.68 1035.16C1183.38 1180.18 1142.25 1295.54 1053.07 1347.03C963.886 1398.52 843.415 1376.46 720.672 1299.02C597.943 1221.58 473.022 1088.82 375.016 919.066C277.011 749.316 224.492 574.748 218.796 429.743C213.099 284.723 254.231 169.363 343.412 117.874C432.593 66.3859 553.064 88.4439 675.807 165.888C798.536 243.323 923.457 376.09 1021.46 545.84Z" stroke="#BD6CFA" stroke-width="0.618436"/>
<path d="M1065.81 667.508C1099.85 860.542 1089.49 1042.54 1045.25 1180.75C1001 1318.98 922.895 1413.31 821.483 1431.19C720.071 1449.07 614.409 1387.14 525.556 1272.39C436.712 1157.65 364.734 990.162 330.697 797.128C296.66 604.095 307.014 422.092 351.256 283.885C395.502 145.662 473.61 51.3265 575.022 33.4448C676.435 15.563 782.097 77.4945 870.95 192.249C959.793 306.99 1031.77 474.475 1065.81 667.508Z" stroke="#BD6CFA" stroke-width="0.618436"/>
<path d="M763.862 1099.03C570.828 1133.06 388.826 1122.71 250.618 1078.47C112.395 1034.22 18.0599 956.114 0.178117 854.702C-17.7036 753.289 44.2279 647.628 158.982 558.775C273.723 469.931 441.208 397.953 634.242 363.916C827.275 329.879 1009.28 340.233 1147.49 384.475C1285.71 428.721 1380.04 506.829 1397.93 608.241C1415.81 709.654 1353.88 815.316 1239.12 904.169C1124.38 993.012 956.895 1064.99 763.862 1099.03Z" stroke="#BD6CFA" stroke-width="0.618436"/>
<path d="M912.712 427.194C1073.28 539.622 1194.65 675.639 1261.09 804.65C1327.54 933.675 1339.02 1055.61 1279.95 1139.96C1220.89 1224.32 1102.38 1255.24 958.411 1236.93C814.455 1218.61 645.128 1151.08 484.565 1038.65C324.002 926.224 202.629 790.208 136.184 661.196C69.7328 532.171 58.2585 410.236 117.324 325.882C176.389 241.528 294.895 210.606 438.867 228.921C582.823 247.234 752.149 314.767 912.712 427.194Z" stroke="#BD6CFA" stroke-width="0.618436"/>
<path d="M1004.33 945.831C891.902 1106.39 755.885 1227.77 626.874 1294.21C497.848 1360.66 375.913 1372.14 291.559 1313.07C207.205 1254.01 176.283 1135.5 194.598 991.529C212.911 847.573 280.444 678.247 392.872 517.684C505.299 357.121 641.316 235.747 770.327 169.303C899.352 102.852 1021.29 91.3771 1105.64 150.442C1190 209.507 1220.92 328.014 1202.6 471.986C1184.29 615.942 1116.76 785.268 1004.33 945.831Z" stroke="#BD6CFA" stroke-width="0.618436"/>
<path d="M779.81 368.85C971.175 411.274 1135.36 490.49 1246.12 584.253C1356.89 678.027 1414.15 786.29 1391.86 886.826C1369.57 987.362 1271.92 1061.28 1131.9 1099.46C991.894 1137.63 809.613 1140.03 618.248 1097.61C426.883 1055.18 262.697 975.967 151.94 882.204C41.1709 788.43 -16.0927 680.167 6.19558 579.631C28.4839 479.095 126.136 405.177 266.158 367.002C406.164 328.831 588.445 326.425 779.81 368.85Z" stroke="#BD6CFA" stroke-width="0.618436"/>
<path d="M1062.94 812.946C1020.51 1004.31 941.295 1168.5 847.532 1279.25C753.758 1390.02 645.495 1447.29 544.959 1425C444.423 1402.71 370.505 1305.06 332.329 1165.04C294.159 1025.03 291.753 842.75 334.178 651.385C376.602 460.02 455.818 295.833 549.581 185.077C643.355 74.3077 751.618 17.044 852.154 39.3323C952.69 61.6206 1026.61 159.273 1064.78 299.294C1102.95 439.3 1105.36 621.581 1062.94 812.946Z" stroke="#BD6CFA" stroke-width="0.618436"/>
<path d="M498.804 418.132C664.118 312.815 836.229 252.732 980.847 240.716C1125.48 228.699 1242.53 264.76 1297.86 351.61C1353.18 438.46 1336.4 559.779 1264.39 685.783C1192.38 811.773 1065.19 942.366 899.872 1047.68C734.558 1153 562.447 1213.08 417.829 1225.1C273.196 1237.12 156.151 1201.05 100.821 1114.2C45.4918 1027.35 62.274 906.036 134.29 780.032C206.299 654.042 333.49 523.449 498.804 418.132Z" stroke="#BD6CFA" stroke-width="0.618436"/>
<path d="M1013.02 531.956C1118.34 697.271 1178.42 869.382 1190.44 1014C1202.46 1158.63 1166.4 1275.68 1079.55 1331.01C992.696 1386.34 871.377 1369.55 745.373 1297.54C619.383 1225.53 488.79 1098.34 383.473 933.025C278.156 767.71 218.073 595.599 206.057 450.982C194.04 306.348 230.102 189.303 316.951 133.974C403.801 78.6442 525.12 95.4264 651.124 167.443C777.114 239.451 907.707 366.642 1013.02 531.956Z" stroke="#BD6CFA" stroke-width="0.618436"/>
<path d="M1062.63 651.573C1105.06 842.938 1102.65 1025.22 1064.48 1165.23C1026.31 1305.25 952.388 1402.9 851.852 1425.19C751.316 1447.48 643.053 1390.21 549.279 1279.44C455.516 1168.69 376.3 1004.5 333.875 813.135C291.451 621.77 293.857 439.489 332.027 299.483C370.202 159.462 444.121 61.8093 544.657 39.521C645.193 17.2327 753.456 74.4964 847.23 185.265C940.993 296.022 1020.21 460.208 1062.63 651.573Z" stroke="#BD6CFA" stroke-width="0.618436"/>
<path d="M779.805 1095.85C588.44 1138.28 406.159 1135.87 266.153 1097.7C126.132 1059.52 28.4792 985.606 6.19094 885.07C-16.0973 784.534 41.1663 676.271 151.935 582.497C262.692 488.733 426.878 409.518 618.243 367.093C809.608 324.669 991.889 327.074 1131.9 365.245C1271.92 403.42 1369.57 477.339 1391.86 577.875C1414.15 678.411 1356.88 786.673 1246.11 880.447C1135.36 974.211 971.17 1053.43 779.805 1095.85Z" stroke="#BD6CFA" stroke-width="0.618436"/>
<path d="M899.203 418.164C1064.52 523.481 1191.71 654.074 1263.72 780.064C1335.73 906.068 1352.51 1027.39 1297.19 1114.24C1241.86 1201.09 1124.81 1237.15 980.177 1225.13C835.56 1213.12 663.449 1153.03 498.134 1047.72C332.82 942.399 205.629 811.805 133.621 685.815C61.6043 559.811 44.8221 438.492 100.152 351.643C155.481 264.793 272.526 228.731 417.16 240.748C561.777 252.764 733.888 312.847 899.203 418.164Z" stroke="#BD6CFA" stroke-width="0.618436"/>
<path d="M1013.36 932.31C908.044 1097.62 777.451 1224.82 651.461 1296.82C525.457 1368.84 404.138 1385.62 317.288 1330.29C230.438 1274.96 194.377 1157.92 206.394 1013.28C218.41 868.667 278.493 696.556 383.81 531.242C489.127 365.927 619.72 238.736 745.71 166.728C871.714 94.7117 993.033 77.9295 1079.88 133.259C1166.73 188.588 1202.79 305.633 1190.78 450.267C1178.76 594.885 1118.68 766.996 1013.36 932.31Z" stroke="#BD6CFA" stroke-width="0.618436"/>
<path d="M763.888 365.673C956.921 399.71 1124.41 471.688 1239.15 560.531C1353.9 649.384 1415.83 755.046 1397.95 856.459C1380.07 957.871 1285.73 1035.98 1147.51 1080.23C1009.3 1124.47 827.301 1134.82 634.268 1100.78C441.235 1066.75 273.749 994.769 159.008 905.925C44.2541 817.072 -17.6774 711.411 0.204342 609.998C18.0861 508.586 112.421 430.478 250.644 386.231C388.852 341.99 570.854 331.636 763.888 365.673Z" stroke="#BD6CFA" stroke-width="0.618436"/>
<path d="M1066.11 796.998C1032.07 990.031 960.096 1157.52 871.253 1272.26C782.4 1387.01 676.738 1448.94 575.326 1431.06C473.913 1413.18 395.805 1318.84 351.559 1180.62C307.317 1042.41 296.963 860.411 331 667.378C365.037 474.344 437.016 306.859 525.859 192.118C614.712 77.364 720.374 15.4325 821.786 33.3142C923.198 51.196 1001.31 145.531 1045.55 283.754C1089.79 421.962 1100.15 603.964 1066.11 796.998Z" stroke="#BD6CFA" stroke-width="0.618436"/>
<path d="M485.294 427.164C645.857 314.736 815.183 247.203 959.139 228.89C1103.11 210.575 1221.62 241.497 1280.68 325.851C1339.75 410.205 1328.27 532.14 1261.82 661.166C1195.38 790.177 1074 926.194 913.441 1038.62C752.878 1151.05 583.551 1218.58 439.595 1236.89C295.624 1255.21 177.117 1224.29 118.052 1139.93C58.9869 1055.58 70.4613 933.644 136.913 804.619C203.357 675.608 324.731 539.591 485.294 427.164Z" stroke="#BD6CFA" stroke-width="0.618436"/>
<path d="M1003.99 518.45C1116.42 679.013 1183.96 848.34 1202.27 992.295C1220.58 1136.27 1189.66 1254.77 1105.31 1313.84C1020.95 1372.9 899.018 1361.43 769.993 1294.98C640.982 1228.53 504.965 1107.16 392.537 946.597C280.11 786.034 212.577 616.708 194.264 472.752C175.949 328.78 206.871 210.274 291.225 151.208C375.579 92.1433 497.514 103.618 626.539 170.069C755.55 236.513 891.567 357.887 1003.99 518.45Z" stroke="#BD6CFA" stroke-width="0.618436"/>
<path d="M1058.77 635.789C1109.5 825.122 1115.05 1007.33 1083.02 1148.87C1050.99 1290.43 981.402 1391.21 881.934 1417.86C782.466 1444.51 671.808 1392.03 573.292 1285.45C474.786 1178.89 388.485 1018.32 337.753 828.985C287.022 639.653 281.474 457.44 313.502 315.903C345.533 174.349 415.121 73.5656 514.589 46.9132C614.057 20.2608 724.715 72.7476 823.231 179.321C921.737 285.882 1008.04 446.457 1058.77 635.789Z" stroke="#BD6CFA" stroke-width="0.618436"/>
<path d="M795.586 1091.98C606.254 1142.71 424.041 1148.26 282.504 1116.23C140.95 1084.2 40.1667 1014.61 13.5144 915.147C-13.138 815.679 39.3488 705.021 145.922 606.505C252.484 507.999 413.058 421.697 602.39 370.966C791.723 320.235 973.935 314.687 1115.47 346.714C1257.03 378.746 1357.81 448.334 1384.46 547.802C1411.11 647.27 1358.63 757.928 1252.05 856.444C1145.49 954.95 984.919 1041.25 795.586 1091.98Z" stroke="#BD6CFA" stroke-width="0.618436"/>
<path d="M885.312 409.73C1055.06 507.736 1187.83 632.657 1265.27 755.386C1342.71 878.128 1364.77 998.6 1313.28 1087.78C1261.79 1176.96 1146.43 1218.09 1001.41 1212.4C856.405 1206.7 681.837 1154.18 512.087 1056.18C342.336 958.171 209.569 833.25 132.134 710.52C54.69 587.778 32.6319 467.306 84.1203 378.126C135.609 288.945 250.969 247.812 395.99 253.509C540.994 259.206 715.562 311.724 885.312 409.73Z" stroke="#BD6CFA" stroke-width="0.618436"/>
<path d="M1021.79 918.412C923.786 1088.16 798.865 1220.93 676.136 1298.36C553.393 1375.81 432.922 1397.87 343.741 1346.38C254.56 1294.89 213.428 1179.53 219.125 1034.51C224.821 889.504 277.34 714.936 375.345 545.186C473.351 375.435 598.272 242.668 721.001 165.233C843.744 87.7891 964.215 65.731 1053.4 117.219C1142.58 168.708 1183.71 284.068 1178.01 429.089C1172.32 574.093 1119.8 748.661 1021.79 918.412Z" stroke="#BD6CFA" stroke-width="0.618436"/>
<path d="M747.832 363.193C942.166 388.778 1112.63 453.382 1231.14 537.136C1349.66 620.899 1416.14 723.758 1402.7 825.854C1389.26 927.95 1298.42 1010.1 1162.26 1060.33C1026.11 1110.56 844.735 1128.84 650.4 1103.26C456.066 1077.67 285.601 1013.07 167.093 929.316C48.5727 845.553 -17.9088 742.693 -4.4676 640.597C8.97358 538.501 99.8118 456.353 235.973 406.12C372.12 355.892 553.497 337.608 747.832 363.193Z" stroke="#BD6CFA" stroke-width="0.618436"/>
<path d="M1068.58 780.923C1043 975.257 978.394 1145.72 894.641 1264.23C810.878 1382.75 708.018 1449.23 605.922 1435.79C503.826 1422.35 421.678 1331.51 371.444 1195.35C321.216 1059.2 302.933 877.826 328.518 683.491C354.102 489.157 418.707 318.691 502.46 200.184C586.223 81.6635 689.083 15.1821 791.179 28.6233C893.275 42.0644 975.423 132.903 1025.66 269.064C1075.88 405.21 1094.17 586.588 1068.58 780.923Z" stroke="#BD6CFA" stroke-width="0.618436"/>
<path d="M472.188 436.777C627.694 317.452 793.913 242.597 936.933 218.023C1079.97 193.446 1199.71 219.169 1262.4 300.866C1325.09 382.563 1318.94 504.883 1258.18 636.684C1197.43 768.471 1082.1 909.653 926.599 1028.98C771.092 1148.3 604.873 1223.16 461.853 1247.73C318.817 1272.31 199.074 1246.58 136.386 1164.89C73.6976 1083.19 79.8423 960.87 140.603 829.069C201.356 697.283 316.681 556.101 472.188 436.777Z" stroke="#BD6CFA" stroke-width="0.618436"/>
<path d="M994.379 505.35C1113.7 660.856 1188.56 827.076 1213.13 970.096C1237.71 1113.13 1211.99 1232.87 1130.29 1295.56C1048.59 1358.25 926.273 1352.11 794.472 1291.35C662.685 1230.59 521.503 1115.27 402.179 959.761C282.855 804.255 208 638.036 183.426 495.016C158.848 351.98 184.572 232.237 266.269 169.549C347.966 106.86 470.286 113.005 602.087 173.765C733.873 234.519 875.055 349.844 994.379 505.35Z" stroke="#BD6CFA" stroke-width="0.618436"/>
<path d="M1054.22 620.188C1113.16 807.127 1126.65 988.925 1100.83 1131.72C1075 1274.54 1009.88 1378.26 911.667 1409.23C813.456 1440.2 700.614 1392.59 597.543 1290.41C494.483 1188.25 401.259 1031.59 342.317 844.651C283.376 657.711 269.885 475.914 295.709 333.114C321.535 190.298 386.661 86.5752 484.872 55.6094C583.083 24.6437 695.924 72.2537 798.996 174.428C902.056 276.592 995.28 433.249 1054.22 620.188Z" stroke="#BD6CFA" stroke-width="0.618436"/>
<path d="M811.184 1087.43C624.245 1146.37 442.448 1159.86 299.648 1134.04C156.832 1108.21 53.1086 1043.09 22.1429 944.876C-8.82287 846.665 38.7872 733.823 140.962 630.752C243.125 527.692 399.782 434.468 586.722 375.526C773.661 316.585 955.458 303.094 1098.26 328.918C1241.07 354.744 1344.8 419.87 1375.76 518.081C1406.73 616.292 1359.12 729.133 1256.94 832.205C1154.78 935.265 998.123 1028.49 811.184 1087.43Z" stroke="#BD6CFA" stroke-width="0.618436"/>
<path d="M871.065 401.912C1044.93 492.42 1183.02 611.431 1265.73 730.666C1348.46 849.914 1375.75 969.308 1328.2 1060.65C1280.65 1151.99 1167.19 1198.12 1022.06 1198.75C876.948 1199.39 700.256 1154.53 526.392 1064.02C352.527 973.515 214.438 854.505 131.723 735.27C48.9991 616.022 21.7071 496.627 69.2565 405.286C116.806 313.944 230.262 267.818 375.393 267.184C520.508 266.55 697.201 311.405 871.065 401.912Z" stroke="#BD6CFA" stroke-width="0.618436"/>
<path d="M1029.6 904.156C939.096 1078.02 820.085 1216.11 700.851 1298.82C581.603 1381.55 462.208 1408.84 370.867 1361.29C279.525 1313.74 233.399 1200.29 232.765 1055.15C232.131 910.04 276.985 733.347 367.493 559.483C458.001 385.619 577.012 247.53 696.247 164.815C815.495 82.0904 934.889 54.7984 1026.23 102.348C1117.57 149.897 1163.7 263.354 1164.33 408.484C1164.97 553.599 1120.11 730.292 1029.6 904.156Z" stroke="#BD6CFA" stroke-width="0.618436"/>
<path d="M731.69 361.415C926.955 378.498 1100.08 435.606 1222.12 514.11C1344.19 592.624 1415.09 692.486 1406.12 795.071C1397.14 897.656 1309.97 983.688 1176.13 1039.81C1042.31 1095.93 861.898 1122.11 666.632 1105.03C471.367 1087.94 298.245 1030.84 176.198 952.331C54.1363 873.817 -16.7686 773.955 -7.79359 671.37C1.18144 568.785 88.35 482.753 222.191 426.628C356.017 370.509 536.424 344.331 731.69 361.415Z" stroke="#BD6CFA" stroke-width="0.618436"/>
<path d="M1070.35 764.757C1053.27 960.022 996.163 1133.14 917.658 1255.19C839.144 1377.25 739.282 1448.16 636.697 1439.18C534.112 1430.21 448.08 1343.04 391.955 1209.2C335.836 1075.37 309.659 894.964 326.742 699.699C343.826 504.434 400.933 331.313 479.438 209.265C557.951 87.2033 657.813 16.2984 760.398 25.2735C862.983 34.2485 949.016 121.417 1005.14 255.258C1061.26 389.084 1087.44 569.491 1070.35 764.757Z" stroke="#BD6CFA" stroke-width="0.618436"/>
<path d="M459.518 446.953C609.672 320.959 772.468 238.925 914.28 208.136C1056.11 177.343 1176.86 197.818 1243.05 276.703C1309.24 355.588 1308.44 478.06 1253.49 612.386C1198.54 746.697 1089.48 892.775 939.328 1018.77C789.175 1144.76 626.379 1226.8 484.567 1257.59C342.739 1288.38 221.988 1267.9 155.796 1189.02C89.604 1110.13 90.4073 987.662 145.361 853.336C200.308 719.025 309.365 572.947 459.518 446.953Z" stroke="#BD6CFA" stroke-width="0.618436"/>
<path d="M984.2 492.685C1110.19 642.839 1192.23 805.635 1223.02 947.447C1253.81 1089.27 1233.33 1210.03 1154.45 1276.22C1075.56 1342.41 953.093 1341.61 818.767 1286.65C684.456 1231.71 538.379 1122.65 412.385 972.495C286.391 822.342 204.357 659.546 173.568 517.734C142.775 375.906 163.25 255.156 242.135 188.963C321.02 122.771 443.492 123.574 577.818 178.528C712.129 233.475 858.207 342.532 984.2 492.685Z" stroke="#BD6CFA" stroke-width="0.618436"/>
<path d="M1049 604.803C1116.04 788.994 1137.44 970.029 1117.87 1113.82C1098.3 1257.63 1037.76 1364.09 940.995 1399.31C844.228 1434.53 729.417 1391.89 621.987 1294.31C514.569 1196.74 414.601 1044.3 347.561 860.105C280.521 675.914 259.114 494.879 278.683 351.088C298.255 207.282 358.796 100.817 455.562 65.5966C552.329 30.3764 667.14 73.019 774.57 170.601C881.988 268.171 981.956 420.613 1049 604.803Z" stroke="#BD6CFA" stroke-width="0.618436"/>
<path d="M826.577 1082.2C642.386 1149.24 461.351 1170.64 317.56 1151.08C173.754 1131.5 67.2886 1070.96 32.0684 974.196C-3.15177 877.43 39.4909 762.619 137.072 655.189C234.643 547.771 387.085 447.802 571.275 380.763C755.466 313.723 936.501 292.315 1080.29 311.885C1224.1 331.457 1330.56 391.997 1365.78 488.764C1401 585.531 1358.36 700.341 1260.78 807.771C1163.21 915.189 1010.77 1015.16 826.577 1082.2Z" stroke="#BD6CFA" stroke-width="0.618436"/>
<path d="M856.493 394.723C1034.14 477.561 1177.29 590.435 1265.13 705.948C1352.97 821.474 1385.45 939.565 1341.93 1032.89C1298.41 1126.22 1187.07 1177.25 1042.11 1184.22C897.156 1191.18 718.675 1154.08 541.029 1071.24C363.382 988.4 220.233 875.526 132.396 760.013C44.5492 644.487 12.0753 526.396 55.5952 433.068C99.1151 339.739 210.452 288.708 355.417 281.744C500.365 274.781 678.846 311.885 856.493 394.723Z" stroke="#BD6CFA" stroke-width="0.618436"/>
<path d="M1036.79 889.572C953.95 1067.22 841.075 1210.37 725.562 1298.2C610.036 1386.05 491.946 1418.53 398.617 1375.01C305.288 1331.49 254.258 1220.15 247.294 1075.18C240.33 930.235 277.435 751.754 360.273 574.108C443.111 396.461 555.985 253.313 671.498 165.475C787.024 77.6283 905.114 45.1544 998.443 88.6743C1091.77 132.194 1142.8 243.531 1149.77 388.496C1156.73 533.445 1119.63 711.925 1036.79 889.572Z" stroke="#BD6CFA" stroke-width="0.618436"/>
<path d="M715.486 360.344C911.31 368.894 1086.76 418.395 1212.11 491.501C1337.48 564.616 1412.68 661.29 1408.19 764.169C1403.69 867.048 1320.36 956.801 1189.1 1018.71C1057.84 1080.61 878.751 1114.63 682.926 1106.09C487.101 1097.54 311.654 1048.03 186.298 974.927C60.9278 901.813 -14.2655 805.139 -9.77368 702.26C-5.2819 599.381 78.051 509.628 209.316 447.718C340.567 385.816 519.661 351.794 715.486 360.344Z" stroke="#BD6CFA" stroke-width="0.618436"/>
<path d="M1071.42 748.529C1062.87 944.354 1013.37 1119.8 940.267 1245.16C867.152 1370.53 770.478 1445.72 667.599 1441.23C564.721 1436.74 474.968 1353.4 413.058 1222.14C351.156 1090.89 317.134 911.794 325.683 715.969C334.233 520.145 383.735 344.697 456.841 219.341C529.956 93.9713 626.63 18.778 729.509 23.2698C832.388 27.7616 922.141 111.094 984.05 242.36C1045.95 373.61 1079.97 552.704 1071.42 748.529Z" stroke="#BD6CFA" stroke-width="0.618436"/>
<path d="M447.296 457.674C591.811 325.251 750.874 236.193 891.208 199.247C1031.56 162.297 1153.09 177.486 1222.66 253.409C1292.23 329.331 1296.77 451.722 1247.72 588.317C1198.69 724.897 1096.11 875.593 951.592 1008.02C807.077 1140.44 648.014 1229.5 507.68 1266.44C367.331 1303.39 245.802 1288.2 176.232 1212.28C106.661 1136.36 102.122 1013.97 151.164 877.373C200.2 740.793 302.782 590.097 447.296 457.674Z" stroke="#BD6CFA" stroke-width="0.618436"/>
<path d="M973.477 480.473C1105.9 624.988 1194.96 784.051 1231.9 924.385C1268.85 1064.73 1253.66 1186.26 1177.74 1255.83C1101.82 1325.4 979.43 1329.94 842.834 1280.9C706.254 1231.86 555.559 1129.28 423.135 984.769C290.712 840.254 201.655 681.191 164.709 540.857C127.759 400.507 142.948 278.979 218.871 209.408C294.793 139.838 417.183 135.299 553.778 184.341C690.358 233.377 841.054 335.958 973.477 480.473Z" stroke="#BD6CFA" stroke-width="0.618436"/>
</g>
</g>
<defs>
<filter id="filter0_i_13_1717" x="-18.6005" y="-70.4062" width="1435.21" height="811.634" filterUnits="userSpaceOnUse" color-interpolation-filters="sRGB">
<feFlood flood-opacity="0" result="BackgroundImageFix"/>
<feBlend mode="normal" in="SourceGraphic" in2="BackgroundImageFix" result="shape"/>
<feColorMatrix in="SourceAlpha" type="matrix" values="0 0 0 0 0 0 0 0 0 0 0 0 0 0 0 0 0 0 127 0" result="hardAlpha"/>
<feOffset/>
<feGaussianBlur stdDeviation="4.5"/>
<feComposite in2="hardAlpha" operator="arithmetic" k2="-1" k3="1"/>
<feColorMatrix type="matrix" values="0 0 0 0 0 0 0 0 0 0 0 0 0 0 0 0 0 0 0.29 0"/>
<feBlend mode="normal" in2="shape" result="effect1_innerShadow_13_1717"/>
</filter>
<radialGradient id="paint0_radial_13_1717" cx="0" cy="0" r="1" gradientUnits="userSpaceOnUse" gradientTransform="translate(716.92 498.866) rotate(90.0372) scale(504.216 724.802)">
<stop stop-color="white"/>
<stop offset="1" stop-color="white" stop-opacity="0"/>
</radialGradient>
</defs>
</svg>
