<svg width="1605" height="1606" viewBox="0 0 1605 1606" fill="none" xmlns="http://www.w3.org/2000/svg">
<path d="M1174.97 802.585C1174.97 998.597 1133.17 1176.04 1065.6 1304.46C998.023 1432.9 904.721 1512.24 801.744 1512.24C698.767 1512.24 605.465 1432.9 537.889 1304.46C470.32 1176.04 428.518 998.597 428.518 802.585C428.518 606.574 470.32 429.134 537.889 300.709C605.465 172.269 698.767 92.9303 801.744 92.9303C904.721 92.9303 998.023 172.269 1065.6 300.709C1133.17 429.134 1174.97 606.574 1174.97 802.585Z" stroke="#BD6CFA" stroke-width="0.618436"/>
<path d="M802.682 1175.12C606.671 1175.12 429.232 1133.32 300.806 1065.75C172.366 998.173 93.0276 904.87 93.0276 801.894C93.0276 698.917 172.366 605.614 300.806 538.038C429.232 470.469 606.671 428.668 802.682 428.668C998.694 428.668 1176.13 470.469 1304.56 538.038C1433 605.614 1512.34 698.917 1512.34 801.894C1512.34 904.87 1433 998.173 1304.56 1065.75C1176.13 1133.32 998.694 1175.12 802.682 1175.12Z" stroke="#BD6CFA" stroke-width="0.618436"/>
<path d="M1065.93 539.338C1204.53 677.939 1300.44 832.966 1343.47 971.555C1386.51 1110.16 1376.63 1232.23 1303.82 1305.05C1231 1377.87 1108.93 1387.74 970.323 1344.7C831.734 1301.67 676.707 1205.76 538.106 1067.16C399.505 928.558 303.595 773.531 260.563 634.942C217.526 496.338 227.399 374.263 300.215 301.447C373.031 228.631 495.106 218.757 633.711 261.794C772.3 304.827 927.326 400.737 1065.93 539.338Z" stroke="#BD6CFA" stroke-width="0.618436"/>
<path d="M1066.1 1066.01C927.498 1204.61 772.471 1300.52 633.882 1343.55C495.278 1386.59 373.202 1376.71 300.387 1303.9C227.571 1231.08 217.697 1109.01 260.734 970.403C303.766 831.814 399.677 676.787 538.278 538.186C676.879 399.585 831.906 303.674 970.495 260.642C1109.1 217.605 1231.17 227.479 1303.99 300.295C1376.81 373.11 1386.68 495.186 1343.64 633.79C1300.61 772.379 1204.7 927.406 1066.1 1066.01Z" stroke="#BD6CFA" stroke-width="0.618436"/>
<path d="M945.187 458.8C1126.28 533.81 1274.21 640.333 1367.01 751.904C1459.81 863.489 1497.4 980.05 1457.99 1075.19C1418.59 1170.33 1309.58 1226.17 1165.06 1239.45C1020.55 1252.73 840.623 1223.44 659.532 1148.43C478.441 1073.42 330.505 966.898 237.713 855.326C144.91 743.742 107.316 627.181 146.724 532.042C186.131 436.904 295.136 381.066 439.659 367.785C584.166 354.506 764.096 383.789 945.187 458.8Z" stroke="#BD6CFA" stroke-width="0.618436"/>
<path d="M1146.89 945.316C1071.88 1126.41 965.355 1274.34 853.783 1367.14C742.199 1459.94 625.637 1497.53 530.499 1458.12C435.361 1418.72 379.522 1309.71 366.242 1165.19C352.962 1020.68 382.246 840.752 457.256 659.662C532.267 478.571 638.789 330.635 750.361 237.842C861.945 145.04 978.507 107.446 1073.65 146.853C1168.78 186.261 1224.62 295.266 1237.9 439.789C1251.18 584.296 1221.9 764.225 1146.89 945.316Z" stroke="#BD6CFA" stroke-width="0.618436"/>
<path d="M659.881 458.538C840.972 383.527 1020.9 354.244 1165.41 367.523C1309.93 380.804 1418.94 436.642 1458.34 531.78C1497.75 626.919 1460.16 743.48 1367.35 855.065C1274.56 966.636 1126.63 1073.16 945.535 1148.17C764.445 1223.18 584.515 1252.46 440.008 1239.18C295.485 1225.9 186.48 1170.06 147.072 1074.93C107.665 979.788 145.259 863.227 238.062 751.643C330.854 640.071 478.79 533.548 659.881 458.538Z" stroke="#BD6CFA" stroke-width="0.618436"/>
<path d="M1146.53 659.927C1221.54 841.018 1250.82 1020.95 1237.54 1165.46C1224.26 1309.98 1168.42 1418.98 1073.28 1458.39C978.146 1497.8 861.584 1460.2 750 1367.4C638.428 1274.61 531.905 1126.67 456.895 945.582C381.885 764.491 352.601 584.562 365.88 440.055C379.161 295.531 434.999 186.527 530.138 147.119C625.276 107.712 741.838 145.306 853.422 238.108C964.994 330.901 1071.52 478.837 1146.53 659.927Z" stroke="#BD6CFA" stroke-width="0.618436"/>
<path d="M1174.62 786.342C1183.17 982.167 1149.15 1161.26 1087.24 1292.51C1025.33 1423.78 935.581 1507.11 832.702 1511.6C729.823 1516.09 633.149 1440.9 560.035 1315.53C486.928 1190.17 437.427 1014.73 428.877 818.902C420.327 623.077 454.349 443.983 516.251 312.732C578.161 181.467 667.914 98.1343 770.793 93.6425C873.672 89.1507 970.346 164.344 1043.46 289.714C1116.57 415.07 1166.07 590.517 1174.62 786.342Z" stroke="#BD6CFA" stroke-width="0.618436"/>
<path d="M818.929 1174.76C623.105 1183.31 444.01 1149.29 312.76 1087.38C181.495 1025.47 98.1618 935.722 93.67 832.843C89.1782 729.964 164.372 633.29 289.741 560.175C415.097 487.069 590.545 437.567 786.37 429.018C982.194 420.468 1161.29 454.49 1292.54 516.392C1423.8 578.302 1507.14 668.055 1511.63 770.934C1516.12 873.812 1440.93 970.487 1315.56 1043.6C1190.2 1116.71 1014.75 1166.21 818.929 1174.76Z" stroke="#BD6CFA" stroke-width="0.618436"/>
<path d="M1054.19 528.098C1198.71 660.522 1301.29 811.217 1350.32 947.797C1399.37 1084.39 1394.83 1206.78 1325.26 1282.71C1255.69 1358.63 1134.16 1373.82 993.807 1336.87C853.473 1299.92 694.41 1210.86 549.895 1078.44C405.381 946.017 302.799 795.321 253.763 658.741C204.721 522.146 209.261 399.756 278.831 323.833C348.401 247.911 469.93 232.722 610.279 269.672C750.613 306.618 909.676 395.675 1054.19 528.098Z" stroke="#BD6CFA" stroke-width="0.618436"/>
<path d="M1077.34 1054.26C944.916 1198.77 794.22 1301.36 657.64 1350.39C521.045 1399.43 398.655 1394.9 322.732 1325.32C246.81 1255.75 231.621 1134.23 268.571 993.876C305.517 853.542 394.574 694.479 526.997 549.965C659.421 405.45 810.116 302.869 946.696 253.832C1083.29 204.79 1205.68 209.33 1281.6 278.9C1357.53 348.47 1372.72 469.999 1335.77 610.349C1298.82 750.683 1209.76 909.746 1077.34 1054.26Z" stroke="#BD6CFA" stroke-width="0.618436"/>
<path d="M930.049 452.907C1114.24 519.947 1266.68 619.915 1364.25 727.333C1461.83 834.763 1504.48 949.574 1469.26 1046.34C1434.04 1143.11 1327.57 1203.65 1183.76 1223.22C1039.97 1242.79 858.938 1221.38 674.748 1154.34C490.558 1087.3 338.116 987.334 240.545 879.916C142.964 772.486 100.321 657.675 135.541 560.908C170.761 464.141 277.227 403.601 421.033 384.029C564.823 364.46 745.859 385.867 930.049 452.907Z" stroke="#BD6CFA" stroke-width="0.618436"/>
<path d="M1152.78 930.16C1085.74 1114.35 985.776 1266.79 878.358 1364.36C770.928 1461.94 656.118 1504.59 559.351 1469.37C462.584 1434.15 402.044 1327.68 382.472 1183.88C362.902 1040.08 384.31 859.049 451.35 674.859C518.389 490.668 618.358 338.227 725.776 240.656C833.206 143.075 948.017 100.432 1044.78 135.652C1141.55 170.872 1202.09 277.337 1221.66 421.144C1241.23 564.934 1219.82 745.97 1152.78 930.16Z" stroke="#BD6CFA" stroke-width="0.618436"/>
<path d="M645.007 465.088C822.654 382.25 1001.13 345.146 1146.08 352.109C1291.05 359.073 1402.39 410.103 1445.91 503.432C1489.43 596.761 1456.95 714.851 1369.1 830.377C1281.27 945.891 1138.12 1058.76 960.472 1141.6C782.825 1224.44 604.344 1261.54 459.395 1254.58C314.43 1247.62 203.094 1196.59 159.574 1103.26C116.054 1009.93 148.528 891.839 236.375 776.313C324.212 660.8 467.361 547.926 645.007 465.088Z" stroke="#BD6CFA" stroke-width="0.618436"/>
<path d="M1139.98 645.059C1222.81 822.706 1259.92 1001.19 1252.95 1146.14C1245.99 1291.1 1194.96 1402.44 1101.63 1445.96C1008.3 1489.48 890.212 1457 774.686 1369.16C659.173 1281.32 546.299 1138.17 463.461 960.523C380.623 782.877 343.519 604.396 350.482 459.447C357.446 314.482 408.476 203.145 501.805 159.626C595.134 116.106 713.224 148.58 828.75 236.427C944.264 324.264 1057.14 467.413 1139.98 645.059Z" stroke="#BD6CFA" stroke-width="0.618436"/>
<path d="M1173.55 770.127C1190.63 965.393 1164.46 1145.8 1108.34 1279.63C1052.21 1413.47 966.181 1500.64 863.596 1509.61C761.011 1518.59 661.148 1447.68 582.635 1325.62C504.13 1203.57 447.023 1030.45 429.939 835.185C412.856 639.919 439.033 459.512 495.152 325.686C551.277 191.845 637.31 104.677 739.895 95.7015C842.48 86.7265 942.342 157.631 1020.86 279.693C1099.36 401.741 1156.47 574.862 1173.55 770.127Z" stroke="#BD6CFA" stroke-width="0.618436"/>
<path d="M835.144 1173.69C639.879 1190.77 459.471 1164.59 325.645 1108.48C191.805 1052.35 104.636 966.318 95.6611 863.733C86.6861 761.148 157.591 661.286 279.652 582.773C401.7 504.268 574.821 447.161 770.087 430.077C965.352 412.994 1145.76 439.171 1279.59 495.29C1413.43 551.415 1500.59 637.447 1509.57 740.032C1518.54 842.617 1447.64 942.479 1325.58 1020.99C1203.53 1099.5 1030.41 1156.6 835.144 1173.69Z" stroke="#BD6CFA" stroke-width="0.618436"/>
<path d="M1041.98 517.382C1192.13 643.376 1301.19 789.454 1356.14 923.765C1411.09 1058.09 1411.89 1180.56 1345.7 1259.45C1279.51 1338.33 1158.76 1358.81 1016.93 1328.01C875.118 1297.23 712.322 1215.19 562.168 1089.2C412.015 963.204 302.958 817.126 248.011 682.815C193.057 548.489 192.254 426.017 258.446 347.132C324.638 268.248 445.389 247.772 587.217 278.565C729.029 309.354 891.825 391.388 1041.98 517.382Z" stroke="#BD6CFA" stroke-width="0.618436"/>
<path d="M1088.05 1042.03C962.056 1192.19 815.978 1301.24 681.667 1356.19C547.341 1411.14 424.869 1411.95 345.985 1345.76C267.1 1279.56 246.624 1158.81 277.417 1016.99C308.206 875.173 390.241 712.377 516.234 562.224C642.228 412.071 788.306 303.013 922.617 248.066C1056.94 193.113 1179.41 192.309 1258.3 258.502C1337.18 324.694 1357.66 445.444 1326.87 587.272C1296.08 729.084 1214.04 891.88 1088.05 1042.03Z" stroke="#BD6CFA" stroke-width="0.618436"/>
<path d="M914.672 447.68C1101.61 506.622 1258.27 599.846 1360.43 702.906C1462.61 805.977 1510.22 918.819 1479.25 1017.03C1448.28 1115.24 1344.56 1180.37 1201.75 1206.19C1058.95 1232.02 877.149 1218.53 690.209 1159.58C503.27 1100.64 346.613 1007.42 244.45 904.359C142.275 801.287 94.665 688.446 125.631 590.235C156.597 492.024 260.32 426.898 403.135 401.072C545.935 375.248 727.733 388.739 914.672 447.68Z" stroke="#BD6CFA" stroke-width="0.618436"/>
<path d="M1158.01 914.76C1099.07 1101.7 1005.85 1258.36 902.789 1360.52C799.718 1462.69 686.877 1510.3 588.666 1479.34C490.455 1448.37 425.329 1344.65 399.502 1201.83C373.679 1059.03 387.17 877.237 446.111 690.298C505.053 503.358 598.277 346.701 701.337 244.538C804.408 142.363 917.25 94.7534 1015.46 125.719C1113.67 156.685 1178.8 260.408 1204.62 403.224C1230.45 546.024 1216.96 727.821 1158.01 914.76Z" stroke="#BD6CFA" stroke-width="0.618436"/>
<path d="M630.434 472.279C804.298 381.771 980.991 336.917 1126.11 337.551C1271.24 338.185 1384.69 384.311 1432.24 475.653C1479.79 566.994 1452.5 686.389 1369.78 805.637C1287.06 924.871 1148.97 1043.88 975.107 1134.39C801.243 1224.9 624.55 1269.75 479.436 1269.12C334.305 1268.48 220.848 1222.36 173.299 1131.02C125.749 1039.68 153.041 920.281 235.766 801.033C318.481 681.798 456.57 562.787 630.434 472.279Z" stroke="#BD6CFA" stroke-width="0.618436"/>
<path d="M1132.78 630.489C1223.29 804.353 1268.14 981.045 1267.51 1126.16C1266.88 1271.29 1220.75 1384.75 1129.41 1432.3C1038.07 1479.85 918.673 1452.55 799.425 1369.83C680.19 1287.11 561.179 1149.03 470.671 975.162C380.163 801.297 335.309 624.605 335.943 479.49C336.577 334.359 382.703 220.903 474.045 173.354C565.386 125.804 684.781 153.096 804.029 235.82C923.263 318.535 1042.27 456.624 1132.78 630.489Z" stroke="#BD6CFA" stroke-width="0.618436"/>
<path d="M1171.78 753.974C1197.36 948.309 1179.08 1129.69 1128.85 1265.83C1078.62 1401.99 996.469 1492.83 894.373 1506.27C792.277 1519.71 689.418 1453.23 605.655 1334.71C521.901 1216.21 457.296 1045.74 431.712 851.406C406.127 657.071 424.411 475.693 474.638 339.547C524.872 203.386 607.02 112.547 709.116 99.1061C811.212 85.6649 914.072 152.146 997.835 270.667C1081.59 389.174 1146.19 559.64 1171.78 753.974Z" stroke="#BD6CFA" stroke-width="0.618436"/>
<path d="M851.296 1171.91C656.962 1197.5 475.584 1179.21 339.438 1128.99C203.276 1078.75 112.438 996.605 98.997 894.509C85.5558 792.413 152.037 689.553 270.558 605.79C389.065 522.037 559.531 457.432 753.865 431.848C948.199 406.263 1129.58 424.546 1265.72 474.774C1401.88 525.008 1492.72 607.156 1506.16 709.252C1519.61 811.348 1453.12 914.208 1334.6 997.971C1216.1 1081.72 1045.63 1146.33 851.296 1171.91Z" stroke="#BD6CFA" stroke-width="0.618436"/>
<path d="M1029.31 507.21C1184.81 626.535 1300.14 767.716 1360.89 899.503C1421.65 1031.3 1427.8 1153.62 1365.11 1235.32C1302.42 1317.02 1182.68 1342.74 1039.64 1318.16C896.621 1293.59 730.402 1218.73 574.896 1099.41C419.389 980.086 304.064 838.905 243.311 707.118C182.551 575.317 176.406 452.997 239.094 371.3C301.783 289.603 421.525 263.879 564.561 288.457C707.581 313.031 873.801 387.886 1029.31 507.21Z" stroke="#BD6CFA" stroke-width="0.618436"/>
<path d="M1098.22 1029.35C978.899 1184.86 837.717 1300.18 705.931 1360.94C574.13 1421.7 451.81 1427.84 370.113 1365.15C288.416 1302.46 262.692 1182.72 287.269 1039.68C311.844 896.665 386.699 730.445 506.023 574.939C625.347 419.433 766.529 304.108 898.315 243.354C1030.12 182.594 1152.44 176.449 1234.13 239.138C1315.83 301.826 1341.55 421.568 1316.98 564.604C1292.4 707.624 1217.55 873.844 1098.22 1029.35Z" stroke="#BD6CFA" stroke-width="0.618436"/>
<path d="M899.082 443.123C1088.41 493.854 1248.99 580.156 1355.55 678.662C1462.12 777.178 1514.61 887.836 1487.96 987.304C1461.31 1086.77 1360.52 1156.36 1218.97 1188.39C1077.43 1220.42 895.218 1214.87 705.886 1164.14C516.553 1113.41 355.979 1027.11 249.418 928.601C142.844 830.085 90.3575 719.427 117.01 619.959C143.662 520.491 244.446 450.903 385.999 418.871C527.537 386.844 709.749 392.391 899.082 443.123Z" stroke="#BD6CFA" stroke-width="0.618436"/>
<path d="M1162.57 899.149C1111.83 1088.48 1025.53 1249.06 927.027 1355.62C828.51 1462.19 717.853 1514.68 618.385 1488.02C518.917 1461.37 449.328 1360.59 417.297 1219.04C385.269 1077.5 390.817 895.285 441.548 705.953C492.28 516.62 578.582 356.046 677.087 249.484C775.604 142.911 886.261 90.4244 985.729 117.077C1085.2 143.729 1154.79 244.513 1186.82 386.066C1218.84 527.604 1213.3 709.816 1162.57 899.149Z" stroke="#BD6CFA" stroke-width="0.618436"/>
<path d="M616.191 480.103C785.942 382.097 960.51 329.578 1105.51 323.882C1250.53 318.185 1365.89 359.318 1417.38 448.498C1468.87 537.679 1446.81 658.151 1369.37 780.893C1291.93 903.622 1159.17 1028.54 989.417 1126.55C819.666 1224.55 645.098 1277.07 500.094 1282.77C355.074 1288.47 239.713 1247.33 188.225 1158.15C136.736 1068.97 158.794 948.501 236.238 825.758C313.674 703.029 446.44 578.108 616.191 480.103Z" stroke="#BD6CFA" stroke-width="0.618436"/>
<path d="M1124.96 616.247C1222.97 785.997 1275.48 960.565 1281.18 1105.57C1286.88 1250.59 1245.74 1365.95 1156.56 1417.44C1067.38 1468.93 946.912 1446.87 824.169 1369.43C701.44 1291.99 576.519 1159.22 478.513 989.473C380.508 819.722 327.989 645.154 322.293 500.15C316.596 355.129 357.729 239.769 446.909 188.281C536.09 136.792 656.561 158.85 779.304 236.294C902.033 313.729 1026.95 446.496 1124.96 616.247Z" stroke="#BD6CFA" stroke-width="0.618436"/>
<path d="M1169.31 737.915C1203.34 930.948 1192.99 1112.95 1148.75 1251.16C1104.5 1389.38 1026.39 1483.72 924.98 1501.6C823.568 1519.48 717.906 1457.55 629.053 1342.79C540.209 1228.05 468.231 1060.57 434.194 867.535C400.157 674.501 410.511 492.499 454.753 354.291C498.999 216.068 577.107 121.733 678.519 103.851C779.932 85.9692 885.594 147.901 974.447 262.655C1063.29 377.396 1135.27 544.881 1169.31 737.915Z" stroke="#BD6CFA" stroke-width="0.618436"/>
<path d="M867.359 1169.43C674.325 1203.47 492.323 1193.12 354.115 1148.87C215.892 1104.63 121.557 1026.52 103.675 925.108C85.7936 823.696 147.725 718.034 262.479 629.181C377.22 540.338 544.705 468.359 737.739 434.322C930.772 400.285 1112.78 410.64 1250.98 454.881C1389.21 499.127 1483.54 577.235 1501.42 678.648C1519.3 780.06 1457.37 885.722 1342.62 974.575C1227.88 1063.42 1060.39 1135.4 867.359 1169.43Z" stroke="#BD6CFA" stroke-width="0.618436"/>
<path d="M1016.21 497.601C1176.77 610.028 1298.15 746.045 1364.59 875.056C1431.04 1004.08 1442.52 1126.02 1383.45 1210.37C1324.39 1294.72 1205.88 1325.65 1061.91 1307.33C917.952 1289.02 748.625 1221.49 588.062 1109.06C427.499 996.631 306.126 860.614 239.681 731.603C173.23 602.577 161.756 480.642 220.821 396.288C279.886 311.934 398.392 281.012 542.364 299.327C686.32 317.64 855.646 385.173 1016.21 497.601Z" stroke="#BD6CFA" stroke-width="0.618436"/>
<path d="M1107.83 1016.24C995.399 1176.8 859.382 1298.17 730.371 1364.62C601.345 1431.07 479.41 1442.54 395.056 1383.48C310.702 1324.41 279.78 1205.91 298.095 1061.94C316.408 917.98 383.941 748.653 496.369 588.09C608.796 427.527 744.813 306.153 873.824 239.709C1002.85 173.258 1124.78 161.783 1209.14 220.848C1293.49 279.914 1324.41 398.42 1306.1 542.392C1287.79 686.348 1220.25 855.674 1107.83 1016.24Z" stroke="#BD6CFA" stroke-width="0.618436"/>
<path d="M883.307 439.256C1074.67 481.68 1238.86 560.896 1349.61 654.66C1460.38 748.434 1517.65 856.696 1495.36 957.232C1473.07 1057.77 1375.42 1131.69 1235.4 1169.86C1095.39 1208.03 913.11 1210.44 721.745 1168.01C530.38 1125.59 366.194 1046.37 255.437 952.61C144.668 858.836 87.4044 750.573 109.693 650.037C131.981 549.502 229.633 475.583 369.655 437.408C509.661 399.237 691.942 396.831 883.307 439.256Z" stroke="#BD6CFA" stroke-width="0.618436"/>
<path d="M1166.43 883.353C1124.01 1074.72 1044.79 1238.9 951.029 1349.66C857.255 1460.43 748.992 1517.69 648.456 1495.4C547.92 1473.12 474.002 1375.46 435.827 1235.44C397.656 1095.44 395.25 913.156 437.675 721.791C480.099 530.426 559.315 366.24 653.078 255.483C746.852 144.714 855.115 87.4503 955.651 109.739C1056.19 132.027 1130.11 229.679 1168.28 369.701C1206.45 509.706 1208.86 691.987 1166.43 883.353Z" stroke="#BD6CFA" stroke-width="0.618436"/>
<path d="M602.301 488.538C767.615 383.221 939.726 323.138 1084.34 311.122C1228.98 299.105 1346.02 335.167 1401.35 422.016C1456.68 508.866 1439.9 630.185 1367.88 756.189C1295.87 882.179 1168.68 1012.77 1003.37 1118.09C838.055 1223.41 665.944 1283.49 521.326 1295.51C376.693 1307.52 259.648 1271.46 204.318 1184.61C148.989 1097.76 165.771 976.442 237.787 850.438C309.796 724.448 436.987 593.855 602.301 488.538Z" stroke="#BD6CFA" stroke-width="0.618436"/>
<path d="M1116.52 602.363C1221.84 767.677 1281.92 939.788 1293.94 1084.41C1305.95 1229.04 1269.89 1346.08 1183.04 1401.41C1096.19 1456.74 974.874 1439.96 848.87 1367.94C722.88 1295.94 592.287 1168.75 486.97 1003.43C381.653 838.117 321.57 666.006 309.554 521.388C297.537 376.754 333.599 259.709 420.449 204.38C507.298 149.05 628.617 165.833 754.621 237.849C880.611 309.857 1011.2 437.048 1116.52 602.363Z" stroke="#BD6CFA" stroke-width="0.618436"/>
<path d="M1166.13 721.98C1208.56 913.345 1206.15 1095.63 1167.98 1235.63C1129.8 1375.65 1055.88 1473.31 955.349 1495.59C854.813 1517.88 746.55 1460.62 652.776 1349.85C559.013 1239.09 479.797 1074.91 437.373 883.541C394.948 692.176 397.354 509.895 435.524 369.889C473.699 229.868 547.618 132.216 648.154 109.927C748.69 87.639 856.953 144.903 950.727 255.672C1044.49 366.428 1123.71 530.615 1166.13 721.98Z" stroke="#BD6CFA" stroke-width="0.618436"/>
<path d="M883.302 1166.26C691.937 1208.68 509.656 1206.28 369.65 1168.11C229.629 1129.93 131.976 1056.01 109.688 955.476C87.3997 854.94 144.663 746.677 255.432 652.903C366.189 559.14 530.375 479.924 721.74 437.499C913.105 395.075 1095.39 397.481 1235.39 435.651C1375.41 473.826 1473.07 547.745 1495.35 648.281C1517.64 748.817 1460.38 857.08 1349.61 950.854C1238.85 1044.62 1074.67 1123.83 883.302 1166.26Z" stroke="#BD6CFA" stroke-width="0.618436"/>
<path d="M1002.7 488.57C1168.01 593.887 1295.21 724.481 1367.21 850.471C1439.23 976.475 1456.01 1097.79 1400.68 1184.64C1345.35 1271.49 1228.31 1307.55 1083.67 1295.54C939.057 1283.52 766.946 1223.44 601.631 1118.12C436.317 1012.8 309.126 882.212 237.118 756.222C165.101 630.218 148.319 508.899 203.649 422.049C258.978 335.199 376.023 299.137 520.657 311.154C665.274 323.17 837.385 383.254 1002.7 488.57Z" stroke="#BD6CFA" stroke-width="0.618436"/>
<path d="M1116.86 1002.72C1011.54 1168.03 880.948 1295.22 754.958 1367.23C628.954 1439.25 507.635 1456.03 420.785 1400.7C333.936 1345.37 297.874 1228.32 309.891 1083.69C321.907 939.073 381.99 766.962 487.307 601.648C592.624 436.334 723.217 309.143 849.207 237.134C975.211 165.118 1096.53 148.336 1183.38 203.665C1270.23 258.995 1306.29 376.039 1294.27 520.673C1282.26 665.291 1222.18 837.402 1116.86 1002.72Z" stroke="#BD6CFA" stroke-width="0.618436"/>
<path d="M867.385 436.079C1060.42 470.116 1227.9 542.094 1342.64 630.938C1457.4 719.791 1519.33 825.452 1501.45 926.865C1483.57 1028.28 1389.23 1106.39 1251.01 1150.63C1112.8 1194.87 930.799 1205.23 737.765 1171.19C544.732 1137.15 377.246 1065.17 262.505 976.332C147.751 887.479 85.8197 781.817 103.701 680.404C121.583 578.992 215.918 500.884 354.141 456.638C492.349 412.396 674.352 402.042 867.385 436.079Z" stroke="#BD6CFA" stroke-width="0.618436"/>
<path d="M1169.61 867.404C1135.57 1060.44 1063.59 1227.92 974.75 1342.66C885.897 1457.42 780.235 1519.35 678.823 1501.47C577.41 1483.59 499.302 1389.25 455.056 1251.03C410.814 1112.82 400.46 930.818 434.497 737.784C468.534 544.751 540.513 377.265 629.356 262.524C718.209 147.77 823.871 85.8387 925.283 103.72C1026.7 121.602 1104.8 215.937 1149.05 354.16C1193.29 492.368 1203.65 674.371 1169.61 867.404Z" stroke="#BD6CFA" stroke-width="0.618436"/>
<path d="M588.791 497.57C749.354 385.142 918.68 317.609 1062.64 299.296C1206.61 280.982 1325.11 311.904 1384.18 396.257C1443.24 480.611 1431.77 602.547 1365.32 731.572C1298.87 860.583 1177.5 996.6 1016.94 1109.03C856.375 1221.45 687.048 1288.99 543.093 1307.3C399.121 1325.62 280.614 1294.69 221.549 1210.34C162.484 1125.99 173.958 1004.05 240.41 875.025C306.854 746.014 428.228 609.997 588.791 497.57Z" stroke="#BD6CFA" stroke-width="0.618436"/>
<path d="M1107.49 588.856C1219.92 749.419 1287.45 918.746 1305.77 1062.7C1324.08 1206.67 1293.16 1325.18 1208.8 1384.25C1124.45 1443.31 1002.52 1431.84 873.49 1365.38C744.479 1298.94 608.462 1177.57 496.034 1017C383.607 856.44 316.074 687.114 297.761 543.158C279.446 399.186 310.368 280.68 394.722 221.615C479.076 162.55 601.011 174.024 730.037 240.475C859.048 306.92 995.064 428.293 1107.49 588.856Z" stroke="#BD6CFA" stroke-width="0.618436"/>
<path d="M1162.27 706.195C1213 895.528 1218.55 1077.74 1186.52 1219.28C1154.49 1360.83 1084.9 1461.62 985.431 1488.27C885.963 1514.92 775.305 1462.43 676.789 1355.86C578.284 1249.3 491.982 1088.72 441.25 899.391C390.519 710.059 384.971 527.846 416.999 386.309C449.03 244.755 518.618 143.972 618.086 117.319C717.555 90.667 828.212 143.154 926.728 249.727C1025.23 356.289 1111.54 516.863 1162.27 706.195Z" stroke="#BD6CFA" stroke-width="0.618436"/>
<path d="M899.083 1162.39C709.751 1213.12 527.538 1218.67 386.001 1186.64C244.447 1154.61 143.664 1085.02 117.011 985.553C90.359 886.085 142.846 775.427 249.419 676.911C355.981 578.406 516.555 492.104 705.887 441.372C895.22 390.641 1077.43 385.093 1218.97 417.121C1360.52 449.152 1461.31 518.74 1487.96 618.209C1514.61 717.677 1462.12 828.334 1355.55 926.85C1248.99 1025.36 1088.42 1111.66 899.083 1162.39Z" stroke="#BD6CFA" stroke-width="0.618436"/>
<path d="M988.81 480.136C1158.56 578.142 1291.33 703.063 1368.76 825.792C1446.21 948.535 1468.26 1069.01 1416.78 1158.19C1365.29 1247.37 1249.93 1288.5 1104.91 1282.8C959.902 1277.11 785.334 1224.59 615.584 1126.58C445.833 1028.58 313.066 903.656 235.631 780.927C158.187 658.184 136.129 537.712 187.617 448.532C239.106 359.351 354.466 318.218 499.487 323.915C644.491 329.612 819.059 382.13 988.81 480.136Z" stroke="#BD6CFA" stroke-width="0.618436"/>
<path d="M1125.29 988.818C1027.28 1158.57 902.362 1291.34 779.633 1368.77C656.89 1446.21 536.419 1468.27 447.238 1416.78C358.057 1365.3 316.925 1249.94 322.622 1104.91C328.318 959.911 380.837 785.343 478.842 615.592C576.848 445.841 701.769 313.075 824.498 235.639C947.241 158.195 1067.71 136.137 1156.89 187.626C1246.07 239.114 1287.21 354.475 1281.51 499.495C1275.81 644.499 1223.29 819.067 1125.29 988.818Z" stroke="#BD6CFA" stroke-width="0.618436"/>
<path d="M851.329 433.599C1045.66 459.184 1216.13 523.788 1334.64 607.542C1453.16 691.305 1519.64 794.165 1506.2 896.261C1492.76 998.357 1401.92 1080.5 1265.76 1130.74C1129.61 1180.97 948.232 1199.25 753.897 1173.67C559.563 1148.08 389.098 1083.48 270.59 999.722C152.07 915.959 85.5883 813.1 99.0295 711.004C112.471 608.908 203.309 526.759 339.47 476.526C475.617 426.298 656.994 408.015 851.329 433.599Z" stroke="#BD6CFA" stroke-width="0.618436"/>
<path d="M1172.08 851.329C1146.5 1045.66 1081.89 1216.13 998.138 1334.64C914.375 1453.16 811.515 1519.64 709.419 1506.2C607.323 1492.76 525.175 1401.92 474.941 1265.76C424.713 1129.61 406.43 948.232 432.015 753.897C457.599 559.563 522.204 389.098 605.957 270.59C689.72 152.07 792.58 85.5883 894.676 99.0295C996.772 112.471 1078.92 203.309 1129.15 339.47C1179.38 475.617 1197.67 656.994 1172.08 851.329Z" stroke="#BD6CFA" stroke-width="0.618436"/>
<path d="M575.685 507.183C731.191 387.859 897.41 313.004 1040.43 288.429C1183.47 263.852 1303.21 289.575 1365.9 371.272C1428.59 452.969 1422.44 575.289 1361.68 707.091C1300.93 838.877 1185.6 980.059 1030.1 1099.38C874.589 1218.71 708.37 1293.56 565.35 1318.14C422.314 1342.71 302.571 1316.99 239.883 1235.29C177.195 1153.6 183.339 1031.28 244.1 899.475C304.853 767.689 420.178 626.507 575.685 507.183Z" stroke="#BD6CFA" stroke-width="0.618436"/>
<path d="M1097.88 575.756C1217.2 731.263 1292.06 897.482 1316.63 1040.5C1341.21 1183.54 1315.48 1303.28 1233.79 1365.97C1152.09 1428.66 1029.77 1422.51 897.969 1361.75C766.182 1301 625 1185.67 505.676 1030.17C386.352 874.661 311.497 708.442 286.923 565.422C262.345 422.386 288.069 302.643 369.766 239.955C451.463 177.267 573.783 183.411 705.584 244.172C837.37 304.925 978.552 420.25 1097.88 575.756Z" stroke="#BD6CFA" stroke-width="0.618436"/>
<path d="M1157.72 690.594C1216.66 877.534 1230.15 1059.33 1204.33 1202.13C1178.5 1344.95 1113.37 1448.67 1015.16 1479.64C916.953 1510.6 804.111 1462.99 701.04 1360.82C597.98 1258.65 504.756 1102 445.815 915.057C386.873 728.117 373.382 546.32 399.206 403.52C425.032 260.705 490.158 156.981 588.369 126.016C686.58 95.0499 799.421 142.66 902.493 244.835C1005.55 346.998 1098.78 503.655 1157.72 690.594Z" stroke="#BD6CFA" stroke-width="0.618436"/>
<path d="M914.681 1157.84C727.742 1216.78 545.945 1230.27 403.145 1204.45C260.329 1178.62 156.606 1113.49 125.64 1015.28C94.6742 917.071 142.284 804.23 244.459 701.158C346.622 598.098 503.279 504.874 690.219 445.933C877.158 386.991 1058.96 373.501 1201.76 399.324C1344.57 425.15 1448.29 490.276 1479.26 588.487C1510.23 686.698 1462.62 799.54 1360.44 902.611C1258.28 1005.67 1101.62 1098.89 914.681 1157.84Z" stroke="#BD6CFA" stroke-width="0.618436"/>
<path d="M974.562 472.319C1148.43 562.827 1286.52 681.838 1369.23 801.072C1451.95 920.32 1479.25 1039.71 1431.7 1131.06C1384.15 1222.4 1270.69 1268.52 1125.56 1269.16C980.445 1269.79 803.753 1224.94 629.889 1134.43C456.024 1043.92 317.935 924.911 235.22 805.676C152.496 686.428 125.204 567.034 172.754 475.692C220.303 384.35 333.759 338.225 478.89 337.591C624.005 336.957 800.698 381.811 974.562 472.319Z" stroke="#BD6CFA" stroke-width="0.618436"/>
<path d="M1133.1 974.562C1042.59 1148.43 923.582 1286.52 804.348 1369.23C685.1 1451.95 565.705 1479.25 474.364 1431.7C383.022 1384.15 336.896 1270.69 336.262 1125.56C335.628 980.446 380.482 803.753 470.99 629.889C561.498 456.025 680.509 317.936 799.744 235.221C918.992 152.497 1038.39 125.205 1129.73 172.754C1221.07 220.304 1267.2 333.76 1267.83 478.891C1268.46 624.005 1223.61 800.698 1133.1 974.562Z" stroke="#BD6CFA" stroke-width="0.618436"/>
<path d="M835.187 431.821C1030.45 448.905 1203.57 506.012 1325.62 584.517C1447.68 663.03 1518.59 762.892 1509.61 865.477C1500.64 968.062 1413.47 1054.09 1279.63 1110.22C1145.8 1166.34 965.395 1192.52 770.129 1175.43C574.864 1158.35 401.743 1101.24 279.695 1022.74C157.633 944.223 86.7285 844.361 95.7035 741.776C104.679 639.191 191.847 553.159 325.688 497.034C459.514 440.915 639.921 414.738 835.187 431.821Z" stroke="#BD6CFA" stroke-width="0.618436"/>
<path d="M1173.85 835.163C1156.77 1030.43 1099.66 1203.55 1021.15 1325.6C942.641 1447.66 842.779 1518.56 740.194 1509.59C637.609 1500.61 551.577 1413.44 495.452 1279.6C439.333 1145.78 413.156 965.371 430.239 770.105C447.323 574.84 504.43 401.719 582.935 279.671C661.448 157.61 761.31 86.7047 863.895 95.6797C966.48 104.655 1052.51 191.823 1108.64 325.664C1164.76 459.49 1190.93 639.897 1173.85 835.163Z" stroke="#BD6CFA" stroke-width="0.618436"/>
<path d="M563.015 517.359C713.169 391.366 875.965 309.332 1017.78 278.542C1159.6 247.749 1280.36 268.225 1346.55 347.11C1412.74 425.994 1411.94 548.466 1356.98 682.792C1302.04 817.103 1192.98 963.181 1042.83 1089.17C892.672 1215.17 729.876 1297.2 588.064 1327.99C446.236 1358.79 325.486 1338.31 259.293 1259.42C193.101 1180.54 193.904 1058.07 248.858 923.742C303.805 789.431 412.862 643.353 563.015 517.359Z" stroke="#BD6CFA" stroke-width="0.618436"/>
<path d="M1087.7 563.092C1213.69 713.245 1295.73 876.041 1326.51 1017.85C1357.31 1159.68 1336.83 1280.43 1257.95 1346.62C1179.06 1412.82 1056.59 1412.01 922.264 1357.06C787.953 1302.11 641.876 1193.05 515.882 1042.9C389.888 892.748 307.854 729.952 277.065 588.14C246.272 446.312 266.747 325.562 345.632 259.369C424.517 193.177 546.989 193.981 681.315 248.934C815.626 303.881 961.704 412.938 1087.7 563.092Z" stroke="#BD6CFA" stroke-width="0.618436"/>
<path d="M1152.49 675.209C1219.53 859.4 1240.94 1040.44 1221.37 1184.23C1201.8 1328.03 1141.26 1434.5 1044.49 1469.72C947.725 1504.94 832.914 1462.3 725.484 1364.71C618.066 1267.14 518.098 1114.7 451.058 930.511C384.018 746.321 362.611 565.285 382.181 421.495C401.753 277.688 462.293 171.223 559.059 136.003C655.826 100.783 770.637 143.425 878.067 241.007C985.485 338.577 1085.45 491.019 1152.49 675.209Z" stroke="#BD6CFA" stroke-width="0.618436"/>
<path d="M930.074 1152.6C745.883 1219.64 564.848 1241.05 421.057 1221.48C277.251 1201.91 170.786 1141.37 135.565 1044.6C100.345 947.836 142.988 833.025 240.569 725.595C338.14 618.177 490.582 518.209 674.772 451.169C858.963 384.129 1040 362.722 1183.79 382.291C1327.6 401.863 1434.06 462.403 1469.28 559.17C1504.5 655.937 1461.86 770.748 1364.28 878.178C1266.71 985.596 1114.26 1085.56 930.074 1152.6Z" stroke="#BD6CFA" stroke-width="0.618436"/>
<path d="M959.99 465.129C1137.64 547.967 1280.79 660.842 1368.62 776.355C1456.47 891.881 1488.94 1009.97 1445.42 1103.3C1401.9 1196.63 1290.57 1247.66 1145.6 1254.62C1000.65 1261.59 822.173 1224.48 644.526 1141.64C466.879 1058.81 323.731 945.932 235.893 830.419C148.046 714.893 115.572 596.803 159.092 503.474C202.612 410.145 313.949 359.114 458.914 352.15C603.863 345.187 782.344 382.291 959.99 465.129Z" stroke="#BD6CFA" stroke-width="0.618436"/>
<path d="M1140.28 959.978C1057.45 1137.62 944.573 1280.77 829.059 1368.61C713.533 1456.46 595.443 1488.93 502.114 1445.41C408.785 1401.89 357.755 1290.56 350.791 1145.59C343.828 1000.64 380.932 822.161 463.77 644.514C546.608 466.868 659.482 323.719 774.995 235.882C890.521 148.035 1008.61 115.561 1101.94 159.081C1195.27 202.6 1246.3 313.937 1253.26 458.902C1260.23 603.851 1223.12 782.332 1140.28 959.978Z" stroke="#BD6CFA" stroke-width="0.618436"/>
<path d="M818.983 430.75C1014.81 439.3 1190.25 488.801 1315.61 561.908C1440.98 635.022 1516.17 731.696 1511.68 834.575C1507.19 937.454 1423.86 1027.21 1292.59 1089.12C1161.34 1151.02 982.248 1185.04 786.423 1176.49C590.598 1167.94 415.151 1118.44 289.795 1045.33C164.425 972.219 89.2316 875.545 93.7234 772.666C98.2152 669.787 181.548 580.034 312.813 518.125C444.064 456.222 623.158 422.2 818.983 430.75Z" stroke="#BD6CFA" stroke-width="0.618436"/>
<path d="M1174.92 818.935C1166.37 1014.76 1116.87 1190.21 1043.76 1315.56C970.65 1440.93 873.975 1516.13 771.096 1511.63C668.218 1507.14 578.465 1423.81 516.555 1292.54C454.653 1161.29 420.631 982.2 429.181 786.376C437.73 590.551 487.232 415.103 560.338 289.747C633.453 164.378 730.127 89.1842 833.006 93.676C935.885 98.1678 1025.64 181.501 1087.55 312.766C1149.45 444.016 1183.47 623.111 1174.92 818.935Z" stroke="#BD6CFA" stroke-width="0.618436"/>
<path d="M550.793 528.08C695.308 395.657 854.371 306.6 994.705 269.654C1135.05 232.703 1256.58 247.893 1326.15 323.815C1395.72 399.738 1400.26 522.128 1351.22 658.723C1302.19 795.303 1199.6 945.999 1055.09 1078.42C910.574 1210.85 751.511 1299.9 611.177 1336.85C470.828 1373.8 349.299 1358.61 279.729 1282.69C210.159 1206.76 205.619 1084.37 254.661 947.779C303.697 811.199 406.279 660.503 550.793 528.08Z" stroke="#BD6CFA" stroke-width="0.618436"/>
<path d="M1076.97 550.879C1209.4 695.394 1298.45 854.457 1335.4 994.791C1372.35 1135.14 1357.16 1256.67 1281.24 1326.24C1205.32 1395.81 1082.93 1400.35 946.332 1351.31C809.752 1302.27 659.056 1199.69 526.632 1055.17C394.209 910.66 305.152 751.597 268.206 611.263C231.256 470.914 246.445 349.385 322.368 279.815C398.29 210.245 520.68 205.705 657.275 254.747C793.855 303.783 944.551 406.365 1076.97 550.879Z" stroke="#BD6CFA" stroke-width="0.618436"/>
</svg>
