<svg width="65" height="67" viewBox="0 0 65 67" fill="none" xmlns="http://www.w3.org/2000/svg">
<path d="M32.3839 3.25146C24.4175 3.25146 23.4185 3.28605 20.2899 3.43225C17.1676 3.5781 15.0354 4.086 13.1694 4.82872C11.2406 5.59635 9.60465 6.62361 7.97393 8.29376C6.34308 9.96403 5.3402 11.6394 4.59056 13.6149C3.86538 15.5259 3.36959 17.7097 3.22706 20.9075C3.08431 24.1118 3.05066 25.1348 3.05066 33.2939C3.05066 41.453 3.08431 42.4761 3.22706 45.6804C3.36959 48.8781 3.86538 51.062 4.59056 52.9729C5.3402 54.9484 6.34308 56.6239 7.97393 58.294C9.60465 59.9643 11.2406 60.9914 13.1694 61.7593C15.0354 62.5019 17.1676 63.0098 20.2899 63.1558C23.4185 63.3019 24.4175 63.3364 32.3839 63.3364C40.3504 63.3364 41.3493 63.3019 44.478 63.1558C47.6003 63.0098 49.7325 62.5019 51.5984 61.7593C53.5274 60.9914 55.1632 59.9643 56.7939 58.294C58.4248 56.6239 59.4277 54.9485 60.1773 52.9729C60.9025 51.062 61.3984 48.8781 61.5408 45.6804C61.6836 42.4761 61.7173 41.453 61.7173 33.2939C61.7173 25.1349 61.6836 24.1118 61.5408 20.9075C61.3984 17.7097 60.9025 15.5259 60.1773 13.6149C59.4277 11.6394 58.4248 9.96403 56.7939 8.29376C55.1632 6.62361 53.5274 5.59635 51.5984 4.82872C49.7325 4.086 47.6003 3.5781 44.478 3.43225C41.3493 3.28605 40.3504 3.25146 32.3839 3.25146ZM32.3839 8.66452L35.2546 8.66648C39.041 8.67269 40.6492 8.6951 42.2482 8.75367L42.7838 8.77456C43.2348 8.79313 43.7038 8.81466 44.2371 8.83958C47.097 8.97327 48.6502 9.46268 49.6838 9.87411C51.053 10.4191 52.0303 11.0701 53.0567 12.1213C54.0831 13.1727 54.7188 14.1734 55.251 15.5758C55.6526 16.6344 56.1305 18.2251 56.261 21.1542C56.2853 21.7004 56.3063 22.1807 56.3244 22.6426L56.3448 23.1912L56.3626 23.7405C56.4067 25.2224 56.4246 26.9069 56.43 30.3538V36.234C56.4246 39.681 56.4067 41.3655 56.3626 42.8474L56.3448 43.3967L56.3244 43.9452C56.3063 44.4072 56.2853 44.8874 56.261 45.4336C56.1305 48.3628 55.6526 49.9535 55.251 51.0122C54.7188 52.4143 54.0831 53.4152 53.0567 54.4665C52.0303 55.5178 51.053 56.1688 49.6838 56.7138C48.6502 57.1251 47.097 57.6146 44.2371 57.7482C41.571 57.8728 40.514 57.9128 35.2548 57.9214L33.17 57.9233C32.9159 57.9234 32.654 57.9234 32.3839 57.9234L29.513 57.9214C24.2539 57.9128 23.1969 57.8728 20.5308 57.7482C17.6708 57.6146 16.1175 57.1251 15.0839 56.7138C13.7148 56.1688 12.7376 55.5178 11.7111 54.4665C10.6847 53.4152 10.049 52.4143 9.51686 51.0122C9.11526 49.9535 8.63739 48.3628 8.50687 45.4337C8.48254 44.8875 8.46151 44.4073 8.44338 43.9453L8.42298 43.3967C8.3658 41.759 8.34392 40.1119 8.33785 36.234L8.33604 34.0989C8.33597 33.8387 8.33593 33.5705 8.33593 33.2939L8.33785 30.3538C8.34392 26.476 8.3658 24.8289 8.42298 23.1912L8.44338 22.6426C8.46151 22.1807 8.48254 21.7004 8.50687 21.1542C8.63739 18.2251 9.11526 16.6344 9.51686 15.5758C10.049 14.1734 10.6847 13.1727 11.7111 12.1214C12.7376 11.0701 13.7148 10.4191 15.0839 9.87411C16.1175 9.46268 17.6708 8.97327 20.5307 8.83958C23.1972 8.71498 24.2544 8.67511 29.5132 8.66648L31.5979 8.66463C31.852 8.66455 32.1138 8.66452 32.3839 8.66452ZM32.3839 17.8667C24.0648 17.8667 17.3208 24.7737 17.3208 33.2939C17.3208 41.8142 24.0648 48.7212 32.3839 48.7212C40.703 48.7212 47.4469 41.8142 47.4469 33.2939C47.4469 24.7737 40.703 17.8667 32.3839 17.8667ZM32.3839 23.2798C37.784 23.2798 42.1618 27.7633 42.1618 33.2939C42.1618 38.8245 37.784 43.3081 32.3839 43.3081C26.9838 43.3081 22.6061 38.8245 22.6061 33.2939C22.6061 27.7633 26.9838 23.2798 32.3839 23.2798ZM48.0422 13.6522C46.0981 13.6522 44.5221 15.2661 44.5221 17.2572C44.5221 19.2483 46.0981 20.8623 48.0422 20.8623C49.9862 20.8623 51.5621 19.2483 51.5621 17.2572C51.5621 15.2661 49.9862 13.6522 48.0422 13.6522Z" fill="#070707"/>
</svg>
