<svg width="65" height="67" viewBox="0 0 65 67" fill="none" xmlns="http://www.w3.org/2000/svg">
<path d="M56.4104 3.25146H8.35753C5.42666 3.25146 3.05066 5.68491 3.05066 8.68664V57.9011C3.05066 60.903 5.42666 63.3364 8.35753 63.3364H56.4103C59.3413 63.3364 61.7173 60.903 61.7173 57.9011V8.68664C61.7173 5.68491 59.3413 3.25146 56.4104 3.25146ZM21.2046 55.1328C21.2046 56.0064 20.5132 56.7145 19.6602 56.7145H13.0862C12.2332 56.7145 11.5418 56.0064 11.5418 55.1328V26.9084C11.5418 26.0348 12.2332 25.3267 13.0862 25.3267H19.6602C20.5132 25.3267 21.2046 26.0348 21.2046 26.9084V55.1328ZM16.3732 22.6661C12.924 22.6661 10.1278 19.8024 10.1278 16.2698C10.1278 12.7372 12.924 9.8734 16.3732 9.8734C19.8224 9.8734 22.6186 12.7372 22.6186 16.2698C22.6186 19.8024 19.8226 22.6661 16.3732 22.6661ZM55.5604 55.2602C55.5604 56.0633 54.9246 56.7145 54.1404 56.7145H47.086C46.3018 56.7145 45.666 56.0633 45.666 55.2602V42.0214C45.666 40.0464 46.2316 33.3671 40.6267 33.3671C36.279 33.3671 35.3972 37.9389 35.2201 39.9906V55.2602C35.2201 56.0633 34.5845 56.7145 33.8001 56.7145H26.9773C26.1931 56.7145 25.5573 56.0633 25.5573 55.2602V26.781C25.5573 25.9779 26.1931 25.3267 26.9773 25.3267H33.8001C34.5843 25.3267 35.2201 25.9779 35.2201 26.781V29.2434C36.8322 26.7656 39.228 24.8531 44.3291 24.8531C55.6251 24.8531 55.5604 35.6615 55.5604 41.6002V55.2602Z" fill="#070707"/>
</svg>
