<svg width="65" height="67" viewBox="0 0 65 67" fill="none" xmlns="http://www.w3.org/2000/svg">
<path d="M61.7174 14.8501C59.4528 15.884 57.0289 16.5843 54.5092 16.9178C57.0926 15.2837 59.102 12.7158 60.0269 9.681C57.603 11.1817 54.8919 12.2822 52.0533 12.8492C49.7569 10.3146 46.5036 8.71387 42.8676 8.71387C35.9146 8.71387 30.3012 14.5834 30.3012 21.8202C30.3012 22.854 30.3969 23.8545 30.6201 24.7882C20.1587 24.2547 10.9093 19.0188 4.68981 11.115C3.60539 13.0493 2.99939 15.2837 2.99939 17.6848C2.99939 22.2204 5.23201 26.2556 8.58095 28.5901C6.5078 28.5234 4.59412 27.9231 2.87181 26.956V27.1227C2.87181 33.4591 7.20948 38.7616 12.9505 39.9622C11.898 40.2623 10.7817 40.4291 9.63347 40.4291C8.8361 40.4291 8.03874 40.3624 7.27327 40.1956C8.868 45.3981 13.5246 49.2 19.0105 49.3C14.7047 52.8017 9.28263 54.9027 3.38213 54.9027C2.3615 54.9027 1.37277 54.836 0.384033 54.7026C5.96559 58.4377 12.5678 60.6054 19.6484 60.6054C42.772 60.6054 55.4341 40.6292 55.4341 23.3209C55.4341 22.7539 55.4341 22.187 55.4022 21.6201C57.89 19.7858 60.0269 17.4847 61.7174 14.8501Z" fill="#070707"/>
</svg>
